<?xml version="1.0" encoding="utf-8"?>
<svg version="1.1" id="Layer_1" xmlns="http://www.w3.org/2000/svg" xmlns:xlink="http://www.w3.org/1999/xlink" x="0px" y="0px"
	 viewBox="0 0 700 700" style="enable-background:new 0 0 700 700;" xml:space="preserve">
<style type="text/css">
	.st0{fill:#FFFFFF;}
</style>
<g>
	<path class="st0" d="M560.87,137.17l2.58,423.41l-423.41,2.58l-2.58-423.41L560.87,137.17 M593.67,103.97l-489.4,2.98l2.98,489.4
		l489.4-2.98L593.67,103.97L593.67,103.97z"/>
</g>
<g>
	<rect x="119.25" y="124.9" transform="matrix(0.7151 -0.699 0.699 0.7151 -147.8417 343.4845)" width="456.41" height="456.41"/>
	<path class="st0" d="M350.85,53.73l295.98,302.78L344.05,652.49L48.07,349.71L350.85,53.73 M351.38,7.06L1.41,349.18l342.12,349.98
		L693.5,357.04L351.38,7.06L351.38,7.06z"/>
</g>
<g>
	<path class="st0" d="M351.95,213.65L481.9,346.58L348.97,476.52L219.03,343.6L351.95,213.65 M352.48,166.98L172.36,343.07
		l176.08,180.13l180.13-176.08L352.48,166.98L352.48,166.98z"/>
</g>
<g>
	<path class="st0" d="M350.47,326.51c-1.87,0-3.78,0.29-5.66,0.9c-9.61,3.12-14.87,13.44-11.75,23.05
		c2.51,7.73,9.68,12.65,17.4,12.65c1.87,0,3.78-0.29,5.66-0.9c9.61-3.12,14.87-13.44,11.75-23.05
		C365.35,331.42,358.18,326.51,350.47,326.51L350.47,326.51z"/>
</g>
</svg>
